<svg xmlns="http://www.w3.org/2000/svg" width="1240" height="1240"><path d="M586.5 1.123C457.921 7.76 333.854 55.119 232.111 136.401l-11.389 9.099 111.389.5 111.389.5 4.5 2.652c2.475 1.459 5.538 4.063 6.808 5.788 5.118 6.953 5.192 7.808 5.192 59.606v48.294l-6.947 1.58c-6.142 1.397-22.183 1.58-138.34 1.58-127.418 0-131.626-.06-139.09-1.968-12.588-3.22-22.789-9.165-33.038-19.255-4.903-4.827-9.046-8.777-9.206-8.777-.903 0-21.93 29.261-31.7 44.113C54.17 352.334 21.908 435.329 8.039 521 1.767 559.744-.937 606.594.859 645.393c4.779 103.199 31.34 195.113 81.902 283.419l6.477 11.313 2.461-2.313 2.46-2.312 40.407-.282c34.913-.245 40.815-.072 43.404 1.266 5.758 2.978 6.03 4.582 6.03 35.566v28.15l-3.4 3.4-3.4 3.4H123.943l.278 46.915.279 46.915 3.028 4.307c1.665 2.369 4.966 5.67 7.335 7.335l4.307 3.028 46.665.278 46.665.277v-53.21l3.735-3.422 3.736-3.423H298.2l3.432 3.432 3.432 3.432-.282 41.488-.282 41.489-2.312 2.46-2.313 2.461 11.313 6.477c56.217 32.189 115.744 55.23 176.299 68.24 138.423 29.74 280.838 12.539 405.282-48.951 64.516-31.878 114.573-67.757 165.287-118.472 50.715-50.714 86.594-100.771 118.472-165.287 36.627-74.125 59.066-160.416 62.166-239.058.342-8.684 1.001-16.023 1.464-16.309.463-.286.842-8.62.842-18.52s-.38-17.765-.845-17.478c-.464.287-1.123-6.549-1.464-15.191-3.097-78.561-25.551-164.887-62.163-238.982-13.997-28.327-23.12-44.229-40.005-69.731-39.381-59.477-88.842-111.843-145.624-154.178C874.04 36.194 732.958-6.437 586.5 1.123m-347.302 426.55c-6.008 2.961-6.061 3.324-6.819 45.98-.625 35.173-.531 39.224.981 42.411 3.216 6.776 4.048 6.936 36.144 6.936H298.2l3.4-3.4 3.4-3.4-.015-40.35c-.016-44.062.046-43.565-5.897-47.57-3.314-2.233-3.932-2.28-29.986-2.257-22.52.019-27.109.272-29.904 1.65m121 0c-5.997 2.955-6.068 3.423-6.822 44.979-.754 41.528-.576 43.319 4.767 47.815l3.01 2.533H419.2l3.4-3.4 3.4-3.4v-40.965c0-40.509-.024-40.996-2.168-43.721-4.03-5.124-6.495-5.516-34.55-5.491-21.762.019-26.297.276-29.084 1.65m123.1-1.002c-1.211.25-3.5 1.934-5.086 3.74l-2.884 3.285-.662 21.902c-.363 12.046-.662 29.679-.664 39.184-.002 18.918.707 22.271 5.512 26.05 2.682 2.11 3.528 2.168 31.486 2.168 27.958 0 28.804-.058 31.486-2.168 4.805-3.779 5.514-7.132 5.512-26.05-.002-9.505-.301-27.157-.666-39.227l-.662-21.945-3.257-3.555-3.256-3.555-27.329-.143c-15.03-.078-28.319.063-29.53.314m120.117.75c-1.696.739-4.059 2.582-5.25 4.096-2.14 2.721-2.165 3.225-2.165 43.718V516.2l3.4 3.4 3.4 3.4h58.229l3.736-3.432 3.735-3.432-.224-40.566c-.247-44.913-.246-44.904-6.633-47.935-2.92-1.386-7.385-1.629-29.294-1.596-19.365.029-26.623.376-28.934 1.382m121.003 144.464c-1.144.509-3.282 2.353-4.75 4.097L717 579.153V637.2l3.4 3.4 3.4 3.4h40.965c40.509 0 40.996-.024 43.721-2.168 5.115-4.023 5.514-6.515 5.514-34.399 0-21.651-.254-26.166-1.635-29.076-2.96-6.238-3.139-6.264-46.529-6.859-23.244-.318-40.188-.16-41.418.387m-631.537 1.618c-5.568 3.026-6.001 5.777-5.676 36.072l.295 27.582 3.735 3.421L94.971 644h40.064c44.046 0 44.385-.043 47.492-6.052 1.329-2.57 1.517-7.253 1.267-31.566l-.294-28.549-3.266-2.916-3.266-2.917-40.734.04c-33.278.033-41.213.301-43.353 1.463M.415 620c0 10.175.149 14.337.33 9.25.182-5.087.182-13.413 0-18.5-.181-5.087-.33-.925-.33 9.25m724 73.421c-1.696.739-4.059 2.582-5.25 4.096C717.059 700.195 717 701.053 717 729c0 27.958.058 28.804 2.168 31.486 3.779 4.805 7.132 5.514 26.05 5.512 9.505-.002 27.157-.301 39.227-.666l21.945-.662 3.555-3.258 3.555-3.258v-58.308l-3.555-3.258-3.555-3.258-21.945-.662c-35.106-1.061-56.48-.792-60.03.753m-631.659 1.334C87.384 698.085 87 700.37 87 729c0 28.786.386 31.025 5.92 34.294 2.594 1.532 7.002 1.706 43.262 1.706 44.235 0 43.142.142 46.324-6.011 2.199-4.253 2.199-55.725 0-59.978-3.184-6.157-2.067-6.014-46.479-5.984-36.387.024-40.807.2-43.271 1.728m939.403 43.22c-8.21 5.307-14.493 11.224-19.655 18.511-9.276 13.095-12.511 22.66-13.233 39.131-.668 15.252 1.102 23.929 7.479 36.668 3.727 7.445 6.193 10.757 13.168 17.688 4.72 4.69 11.128 10.02 14.241 11.844l5.659 3.317 3.841-1.962C1066.776 851.367 1082 825.887 1082 799c0-19.704-6.735-35.819-20.942-50.106-8.104-8.15-17.646-14.864-21.153-14.885-.877-.005-4.363 1.78-7.746 3.966M91.235 817.422l-3.735 3.421-.295 27.582c-.259 24.162-.087 28.021 1.385 31.123 3.074 6.479 2.872 6.452 47.845 6.452h40.533l3.266-2.917 3.266-2.916.295-28.267c.32-30.541.064-32.44-4.831-35.926-2.651-1.887-4.554-1.974-43.383-1.974h-40.61l-3.736 3.422M720.4 817.4l-3.4 3.4v58.047l2.533 3.01c4.496 5.343 6.287 5.521 47.815 4.767 41.808-.759 42.085-.802 45.062-7.076 1.472-3.102 1.644-6.961 1.385-31.123l-.295-27.582-3.735-3.421-3.736-3.422H723.8l-3.4 3.4m0 121l-3.4 3.4v28.696c0 32.098.159 32.928 6.938 36.145 3.19 1.513 7.241 1.608 42.389.993 42.912-.751 43.09-.778 46.084-7.088 1.47-3.098 1.644-6.915 1.385-30.473-.281-25.532-.405-27.077-2.392-29.752-3.937-5.297-3.877-5.29-47.254-5.306L723.8 935l-3.4 3.4m-362.257 120.133c-5.343 4.496-5.521 6.287-4.767 47.815.759 41.808.802 42.085 7.076 45.062 3.102 1.472 6.961 1.644 31.123 1.385l27.582-.295 3.421-3.735 3.422-3.736V1062.8l-3.4-3.4-3.4-3.4h-58.047l-3.01 2.533m121 0c-5.343 4.496-5.521 6.283-4.766 47.855.76 41.864.788 42.039 7.23 45.096 4.698 2.229 54.088 2.229 58.786 0 6.442-3.057 6.47-3.232 7.23-45.096.755-41.572.577-43.359-4.766-47.855l-3.01-2.533h-57.694l-3.01 2.533m120.257.867l-3.4 3.4v82.229l3.422 3.736 3.421 3.735 27.582.295c24.162.259 28.021.087 31.123-1.385 6.307-2.993 6.335-3.174 7.085-46.066.745-42.642.758-42.532-5.248-47.256-2.553-2.008-3.761-2.088-31.62-2.088H602.8l-3.4 3.4" fill="undefined" fill-rule="evenodd"/></svg>