<svg height="512pt" viewBox="1 0 511 512" width="512pt" xmlns="http://www.w3.org/2000/svg"><path d="m483.109375 150c3.964844 0 7.566406 2.355469 9.117187 6.003906 13.050782 30.722656 20.273438 64.515625 20.273438 99.996094 0 141.382812-114.613281 256-256 256-141.414062 0-256.5-115.507812-256-256.921875.167969-46.722656 12.859375-90.488281 34.882812-128.132813 2.527344-4.324218 7.199219-6.945312 12.207032-6.945312 23.699218 0 42.910156-19.210938 42.910156-42.910156v-12.609375c0-2.125.929688-4.148438 2.5625-5.507813 44.339844-36.820312 101.296875-58.972656 163.4375-58.972656 51.632812 0 99.691406 15.296875 139.90625 41.589844 2.546875 1.664062 4.09375 4.488281 4.09375 7.53125v18.269531c0 45.625 36.984375 82.609375 82.609375 82.609375zm0 0" fill="#1f3595"/><path d="m497.5 342.5h-68.433594v102.589844c-7.898437 7.210937-16.246094 13.929687-25 20.117187v-122.707031h-183.566406v-25h183.566406v-187.5h25v187.5h75.976563c-2.097657 8.507812-4.617188 16.851562-7.542969 25zm-397-32.5h25v-210h-25zm340-226.433594h-290v25h290zm0 0" fill="#4f66cf"/><path d="m311.5 461h-250c-5.523438 0-10-4.476562-10-10v-250c0-5.523438 4.476562-10 10-10h250c5.523438 0 10 4.476562 10 10v250c0 5.523438-4.476562 10-10 10zm0 0" fill="#0ab59e"/><path d="m311.5 461h-211c-5.523438 0-10-4.476562-10-10v-250c0-5.523438 4.476562-10 10-10h211c5.523438 0 10 4.476562 10 10v250c0 5.523438-4.476562 10-10 10zm0 0" fill="#0ed1b2"/><path d="m226.5 376h-80c-5.523438 0-10-4.476562-10-10v-80c0-5.523438 4.476562-10 10-10h80c5.523438 0 10 4.476562 10 10v80c0 5.523438-4.476562 10-10 10zm0 0" fill="#008a80"/><path d="m226.5 376h-50c-5.523438 0-10-4.476562-10-10v-80c0-5.523438 4.476562-10 10-10h50c5.523438 0 10 4.476562 10 10v80c0 5.523438-4.476562 10-10 10zm0 0" fill="#01988c"/><path d="m226.5 181v30c0 2.761719-2.238281 5-5 5h-20c-2.761719 0-5-2.238281-5-5v-30c0-2.761719 2.238281-5 5-5h20c2.761719 0 5 2.238281 5 5zm-55-5h-20c-2.761719 0-5 2.238281-5 5v30c0 2.761719 2.238281 5 5 5h20c2.761719 0 5-2.238281 5-5v-30c0-2.761719-2.238281-5-5-5zm-50 0h-20c-2.761719 0-5 2.238281-5 5v30c0 2.761719 2.238281 5 5 5h20c2.761719 0 5-2.238281 5-5v-30c0-2.761719-2.238281-5-5-5zm150 0h-20c-2.761719 0-5 2.238281-5 5v30c0 2.761719 2.238281 5 5 5h20c2.761719 0 5-2.238281 5-5v-30c0-2.761719-2.238281-5-5-5zm-50 260h-20c-2.761719 0-5 2.238281-5 5v30c0 2.761719 2.238281 5 5 5h20c2.761719 0 5-2.238281 5-5v-30c0-2.761719-2.238281-5-5-5zm-50 0h-20c-2.761719 0-5 2.238281-5 5v30c0 2.761719 2.238281 5 5 5h20c2.761719 0 5-2.238281 5-5v-30c0-2.761719-2.238281-5-5-5zm-50 0h-20c-2.761719 0-5 2.238281-5 5v30c0 2.761719 2.238281 5 5 5h20c2.761719 0 5-2.238281 5-5v-30c0-2.761719-2.238281-5-5-5zm150 0h-20c-2.761719 0-5 2.238281-5 5v30c0 2.761719 2.238281 5 5 5h20c2.761719 0 5-2.238281 5-5v-30c0-2.761719-2.238281-5-5-5zm0 0" fill="#fff5f5"/><path d="m76.5 291v20c0 2.761719-2.238281 5-5 5h-30c-2.761719 0-5-2.238281-5-5v-20c0-2.761719 2.238281-5 5-5h30c2.761719 0 5 2.238281 5 5zm-5 45h-30c-2.761719 0-5 2.238281-5 5v20c0 2.761719 2.238281 5 5 5h30c2.761719 0 5-2.238281 5-5v-20c0-2.761719-2.238281-5-5-5zm0 50h-30c-2.761719 0-5 2.238281-5 5v20c0 2.761719 2.238281 5 5 5h30c2.761719 0 5-2.238281 5-5v-20c0-2.761719-2.238281-5-5-5zm0-150h-30c-2.761719 0-5 2.238281-5 5v20c0 2.761719 2.238281 5 5 5h30c2.761719 0 5-2.238281 5-5v-20c0-2.761719-2.238281-5-5-5zm260 50h-30c-2.761719 0-5 2.238281-5 5v20c0 2.761719 2.238281 5 5 5h30c2.761719 0 5-2.238281 5-5v-20c0-2.761719-2.238281-5-5-5zm0 50h-30c-2.761719 0-5 2.238281-5 5v20c0 2.761719 2.238281 5 5 5h30c2.761719 0 5-2.238281 5-5v-20c0-2.761719-2.238281-5-5-5zm0 50h-30c-2.761719 0-5 2.238281-5 5v20c0 2.761719 2.238281 5 5 5h30c2.761719 0 5-2.238281 5-5v-20c0-2.761719-2.238281-5-5-5zm0-150h-30c-2.761719 0-5 2.238281-5 5v20c0 2.761719 2.238281 5 5 5h30c2.761719 0 5-2.238281 5-5v-20c0-2.761719-2.238281-5-5-5zm0 0" fill="#fff5f5"/><path d="m492.371094 156.328125-61.664063 61.660156c-7.808593 7.8125-20.472656 7.8125-28.285156 0l-77.78125-77.78125c-7.808594-7.808593-7.808594-20.472656 0-28.28125l70.898437-70.898437c42.773438 27.71875 76.753907 67.847656 96.832032 115.300781zm0 0" fill="#fd2aa7"/><path d="m492.371094 156.328125-61.664063 61.660156c-.476562.480469-.972656.925781-1.488281 1.347657-.078125-.082032-.164062-.15625-.246094-.238282l-51.109375-51.109375c-23.152343-23.152343-23.152343-60.691406 0-83.847656l32.640625-32.640625c35.738282 26.957031 64.191406 63.054688 81.867188 104.828125zm0 0" fill="#fd4fb6"/><path d="m190.5 70v50c0 5.523438-4.476562 10-10 10h-140c-2.171875 0-4.175781-.699219-5.816406-1.875 14.976562-25.925781 34.375-48.96875 57.152344-68.125h88.664062c5.523438 0 10 4.476562 10 10zm227 230c-16.570312 0-30 13.429688-30 30s13.429688 30 30 30 30-13.429688 30-30-13.429688-30-30-30zm0 0" fill="#01cffa"/><path d="m190.5 70v38.285156c-3.128906 1.105469-6.492188 1.714844-10 1.714844h-100c-10.230469 0-19.261719-5.125-24.675781-12.945312 10.730469-13.53125 22.800781-25.945313 36.011719-37.054688h88.664062c5.523438 0 10 4.476562 10 10zm239.667969 232.804688c-10.238281 4.777343-17.335938 15.15625-17.335938 27.195312s7.097657 22.417969 17.335938 27.195312c10.234375-4.777343 17.332031-15.15625 17.332031-27.195312s-7.097656-22.417969-17.332031-27.195312zm0 0" fill="#62dafa"/></svg>