<svg height="512pt" viewBox="0 0 512.00017 512" width="512pt" xmlns="http://www.w3.org/2000/svg"><path d="m76.175781 433.664062c-2.398437.410157-4.847656-.382812-6.515625-2.152343-43.183594-45.828125-69.660156-107.574219-69.660156-175.511719 0-141.382812 114.613281-256 256-256 141.617188 0 256.800781 115.863281 255.996094 257.480469-.382813 67.320312-26.757813 128.46875-69.585938 173.957031-1.691406 1.796875-4.152344 2.640625-6.589844 2.226562-56.207031-9.558593-116.742187-14.765624-179.820312-14.765624s-123.613281 5.207031-179.824219 14.765624zm0 0" fill="#4f66cf"/><path d="m393.453125 40h-54.0625c-5.332031 0-9.457031 4.429688-9.390625 9.761719.007812.726562-.023438 1.464843-.097656 2.210937-1.003906 10.316406-9.988282 18.027344-20.355469 18.027344h-119.546875c-11.289062 0-20.390625-9.351562-19.988281-20.730469.386719-10.835937 9.625-19.269531 20.46875-19.269531h69.894531c5.421875 0 9.652344-4.46875 9.625-9.890625 0-.035156 0-.074219 0-.109375 0-8.476562 5.28125-15.703125 12.726562-18.613281 40.449219 4.195312 78.101563 17.808593 110.726563 38.613281zm0 0" fill="#0ed1b2"/><path d="m442.769531 431.058594c-46.707031 49.8125-113.097656 80.941406-186.769531 80.941406s-140.0625-31.128906-186.769531-80.941406l30.769531-323.058594.667969-40c0-5.523438 4.476562-10 10-10h311.332031c5.523438 0 10 4.476562 10 10v40c0 5.523438-4.476562 10-10 10h-9.046875zm0 0" fill="#fdbf43"/><path d="m379.996094 130.734375c-.125 6.882813-6.027344 12.265625-12.910156 12.265625h-212.226563c-10.3125 0-18.933594 7.839844-19.910156 18.105469l-14.214844 149.246093c-9.742187 102.265626 69.375 192.070313 172.09375 193.617188 1.3125.019531 2.625.03125 3.941406.03125 9.792969 0 19.453125-.566406 28.960938-1.636719-22.167969 6.265625-45.554688 9.636719-69.730469 9.636719-73.671875 0-140.0625-31.128906-186.769531-80.941406l29.816406-313.058594h-9.046875c-5.523438 0-10-4.476562-10-10v-40c0-5.523438 4.476562-10 10-10h30c-5.523438 0-10 4.476562-10 10v40c0 5.523438 4.476562 10 10 10h247.5c6.980469 0 12.625 5.722656 12.496094 12.734375zm0 0" fill="#fda800"/><path d="m351 325c0 52.46875-42.53125 95-95 95s-95-42.53125-95-95 42.53125-95 95-95 95 42.53125 95 95zm0 0" fill="#fde5bd"/><path d="m351 325c0 47.535156-34.914062 86.917969-80.5 93.898438-45.585938-6.980469-80.5-46.363282-80.5-93.898438s34.914062-86.917969 80.5-93.898438c45.585938 6.980469 80.5 46.363282 80.5 93.898438zm0 0" fill="#fff5f5"/><path d="m350.988281 325.929688c-.316406 32.894531-17.347656 61.785156-43.007812 78.59375l-51.980469-78.730469-51.980469 78.730469c-25.664062-16.808594-42.691406-45.699219-43.007812-78.589844l92.300781-5.492188-.167969-.382812-39.945312-79.886719c12.863281-6.503906 27.402343-10.171875 42.800781-10.171875s29.9375 3.667969 42.800781 10.171875l-39.945312 79.886719-.105469.382812zm0 0" fill="#235967"/><path d="m350.980469 325.929688c-.320313 32.894531-17.347657 61.773437-43.007813 78.582031l-51.972656-78.71875-41.5 62.851562c-15.21875-16.84375-24.5-39.15625-24.5-63.644531 0-.269531.015625-.539062.019531-.808594l63.292969-3.75-.167969-.382812-32.46875-64.9375c13.5625-12.492188 30.75-21.101563 49.824219-24.019532 10.039062 1.535157 19.558594 4.648438 28.300781 9.070313l-39.941406 79.886719-.109375.382812zm0 0" fill="#2b6c7e"/></svg>